<svg width="53" height="55" viewBox="0 0 53 55" fill="none" xmlns="http://www.w3.org/2000/svg">
    <path d="M38.3922 7.33333C43.4039 7.33333 47.4339 11.3892 47.4339 16.375C47.4339 21.2575 43.5589 25.2358 38.728 25.4167C38.5049 25.3908 38.2795 25.3908 38.0564 25.4167M43.378 48.6667C45.238 48.2792 46.9947 47.53 48.4414 46.4192C52.4714 43.3967 52.4714 38.4108 48.4414 35.3883C47.0205 34.3033 45.2897 33.58 43.4555 33.1667M19.663 25.0808C19.4047 25.055 19.0947 25.055 18.8105 25.0808C15.8454 24.9802 13.0359 23.7293 10.9769 21.5932C8.91796 19.4571 7.77128 16.6035 7.7797 13.6367C7.7797 7.30749 12.8947 2.16666 19.2497 2.16666C22.2883 2.11185 25.2242 3.26637 27.4116 5.37623C29.599 7.48609 30.8586 10.3785 30.9134 13.4171C30.9683 16.4557 29.8137 19.3916 27.7039 21.579C25.594 23.7664 22.7016 25.026 19.663 25.0808ZM6.74637 34.6133C0.494701 38.7983 0.494701 45.6183 6.74637 49.7775C13.8505 54.5308 25.5014 54.5308 32.6055 49.7775C38.8572 45.5925 38.8572 38.7725 32.6055 34.6133C25.5272 29.8858 13.8764 29.8858 6.74637 34.6133Z" stroke="black" stroke-width="3" stroke-linecap="round" stroke-linejoin="round"/>
</svg>
